<svg xmlns="http://www.w3.org/2000/svg" height="1.2em" width="1.2em" viewBox="0 0 512 512"><path d="M 271 48 Q 320 48 320 97 Q 320 112 320 127 L 320 353 Q 320 368 320 383 Q 320 432 271 432 Q 256 432 241 432 L 207 432 Q 192 432 177 432 Q 128 432 128 383 Q 128 368 128 353 L 128 127 Q 128 112 128 97 Q 128 48 177 48 Q 192 48 207 48 L 241 48 Q 256 48 271 48 Z" fill="transparent" stroke="currentColor" stroke-width="15" /><path d="M 233 339 L 183 237 Q 176 224 191 224 L 224 224 L 210 143 Q 208 128 215 141 L 265 243 Q 272 256 257 256 L 224 256 L 238 337 Q 240 352 233 339 Z" fill="transparent" stroke="currentColor" stroke-width="15" /><path d="M -16 127 L -16 193 Q -16 208 -31 208 L -65 208 Q -80 208 -94 203 L -114 197 Q -128 192 -137 204 L -183 260 Q -192 272 -200 260 L -216 236 Q -224 224 -213 213 L -123 123 Q -112 112 -97 112 L -31 112 Q -16 112 -16 127 Z" fill="transparent" stroke="currentColor" stroke-width="15" /><line x1="-208" y1="256" x2="-240" y2="304" stroke="currentColor" stroke-width="19" stroke-linecap="round" /><path d="M 329 172 Q 406 281 429 401 Q 432 416 433 421 A 64.4980619863884 64.4980619863884 0 0 1 305 437 Q 304 432 311 419 Q 320 400 320 367 Q 320 352 320 337 L 320 175 Q 320 160 329 172 Z" fill="transparent" stroke="currentColor" stroke-width="15" /></svg>