<svg xmlns="http://www.w3.org/2000/svg" height="1.2em" width="1.2em" viewBox="0 0 512 512"><path d="M 383 64 Q 432 64 432 113 Q 432 128 432 143 L 432 369 Q 432 384 432 399 Q 432 448 383 448 Q 368 448 353 448 L 319 448 Q 304 448 289 448 Q 240 448 240 399 Q 240 384 240 369 L 240 143 Q 240 128 240 113 Q 240 64 289 64 Q 304 64 319 64 L 353 64 Q 368 64 383 64 Z" fill="transparent" stroke="currentColor" stroke-width="15" /><path d="M 345 355 L 295 253 Q 288 240 303 240 L 336 240 L 322 159 Q 320 144 327 157 L 377 259 Q 384 272 369 272 L 336 272 L 350 353 Q 352 368 345 355 Z" fill="transparent" stroke="currentColor" stroke-width="15" /><path d="M 240 207 L 240 273 Q 240 288 225 288 L 191 288 Q 176 288 162 283 L 142 277 Q 128 272 119 284 L 73 340 Q 64 352 56 340 L 40 316 Q 32 304 43 293 L 133 203 Q 144 192 159 192 L 225 192 Q 240 192 240 207 Z" fill="transparent" stroke="currentColor" stroke-width="15" /><line x1="48" y1="336" x2="16" y2="384" stroke="currentColor" stroke-width="19" stroke-linecap="round" /></svg>