<svg xmlns="http://www.w3.org/2000/svg" height="1.2em" width="1.2em" viewBox="0 0 512 512"><path d="M 447 64 Q 496 64 496 113 Q 496 128 496 143 L 496 369 Q 496 384 496 399 Q 496 448 447 448 Q 432 448 417 448 L 383 448 Q 368 448 353 448 Q 304 448 304 399 Q 304 384 304 369 L 304 143 Q 304 128 304 113 Q 304 64 353 64 Q 368 64 383 64 L 417 64 Q 432 64 447 64 Z" fill="transparent" stroke="currentColor" stroke-width="15" /><path d="M 409 355 L 359 253 Q 352 240 367 240 L 400 240 L 386 159 Q 384 144 391 157 L 441 259 Q 448 272 433 272 L 400 272 L 414 353 Q 416 368 409 355 Z" fill="transparent" stroke="currentColor" stroke-width="15" /><path d="M 192 191 L 192 257 Q 192 272 177 272 L 143 272 Q 128 272 114 267 L 94 261 Q 80 256 71 268 L 25 324 Q 16 336 8 324 L -8 300 Q -16 288 -5 277 L 85 187 Q 96 176 111 176 L 177 176 Q 192 176 192 191 Z" fill="transparent" stroke="currentColor" stroke-width="15" transform="rotate(326,88,256)" /><line x1="42" y1="355" x2="17" y2="403" stroke="currentColor" stroke-width="19" stroke-linecap="round" /></svg>